# xmcd
#
# Track frame offsets:
#	150
#	11426
#	26175
#	42059
#	62184
#	78256
#	93372
#	108300
#	130641
#	146766
#	165101
#	182070
#	202967
#	220614
#	240790
#	255071
#	273796
#	295753
#	311733
#
# Disc length: 4396 seconds
#
# Revision: 1
# Processed by: cddbd v1.5.2PL0 Copyright (c) Steve Scherf et al.
# Submitted via: audiograbber 1.83.01
#
DISCID=eb112a13
DTITLE=Отпетые Мошенники - Золотые Хиты 2005
DYEAR=1900
DGENRE=
TTITLE0=Миллион огней
TTITLE1=Мани-мани
TTITLE2=Обратите внимание
TTITLE3=Тараканы
TTITLE4=Всяко-разно
TTITLE5=Насосы
TTITLE6=Гоп-стоп
TTITLE7=Не говори мне ничего
TTITLE8=Брестская улица
TTITLE9=Люби меня, люби
TTITLE10=Хали-гали
TTITLE11=Люблю
TTITLE12=Девушки
TTITLE13=Уеду-еду
TTITLE14=Двигай телом
TTITLE15=А у реки (remix)
TTITLE16=Солнце, лето, море (Ну где же вы, девчонки?)
TTITLE17=Моя звезда
TTITLE18=Граница
EXTD=
EXTT0=
EXTT1=
EXTT2=
EXTT3=
EXTT4=
EXTT5=
EXTT6=
EXTT7=
EXTT8=
EXTT9=
EXTT10=
EXTT11=
EXTT12=
EXTT13=
EXTT14=
EXTT15=
EXTT16=
EXTT17=
EXTT18=
PLAYORDER=
